<svg xmlns="http://www.w3.org/2000/svg" xmlns:xlink="http://www.w3.org/1999/xlink" version="1.1" width="100%" height="100%" viewBox="0 0 2448 2048">
<image x="0" y="0" width="2448px" height="2048px" xlink:href="roof_Cycle_3_13000027023041200001_W214-RR_NOK_991.bmp"/>
<circle  cx="2068.6" cy="352" r="112.5" stroke-width="5" stroke="#000000" fill="none"/>
<circle  cx="2068.6" cy="352" r="108.7" stroke-width="5" stroke="#808080" fill="none"/>
<circle  cx="2068.6" cy="352" r="105" stroke-width="5" stroke="#808080" fill="none"/>
<circle  cx="2068.6" cy="352" r="101.2" stroke-width="5" stroke="#FF0000" fill="none"/>
<circle  cx="2068.6" cy="352" r="97.5" stroke-width="5" stroke="#FF0000" fill="none"/>
<circle  cx="2068.6" cy="352" r="93.7" stroke-width="5" stroke="#FF0000" fill="none"/>
<circle  cx="2068.6" cy="352" r="90" stroke-width="5" stroke="#FF0000" fill="none"/>
<circle  cx="2068.6" cy="352" r="86.2" stroke-width="5" stroke="#FF0000" fill="none"/>
<circle  cx="2068.6" cy="352" r="75" stroke-width="5" stroke="#FF0000" fill="none"/>
<circle  cx="2068.6" cy="352" r="0" stroke-width="5" stroke="#FF0000" fill="none"/>
<circle  cx="2068.6" cy="352" r="78.7" stroke-width="5" stroke="#FF0000" fill="none"/>
<circle  cx="2068.6" cy="352" r="3.7" stroke-width="5" stroke="#FF0000" fill="none"/>
<circle  cx="2068.6" cy="352" r="82.5" stroke-width="5" stroke="#FF0000" fill="none"/>
<circle  cx="2068.6" cy="352" r="7.5" stroke-width="5" stroke="#FF0000" fill="none"/>
<circle  cx="2068.6" cy="352" r="11.2" stroke-width="5" stroke="#FF0000" fill="none"/>
<circle  cx="2068.6" cy="352" r="15" stroke-width="5" stroke="#FF0000" fill="none"/>
<circle  cx="2068.6" cy="352" r="18.7" stroke-width="5" stroke="#FF0000" fill="none"/>
<circle  cx="2068.6" cy="352" r="22.5" stroke-width="5" stroke="#FF0000" fill="none"/>
<circle  cx="2068.6" cy="352" r="26.2" stroke-width="5" stroke="#FF0000" fill="none"/>
<circle  cx="2068.6" cy="352" r="30" stroke-width="5" stroke="#FF0000" fill="none"/>
<circle  cx="2068.6" cy="352" r="33.7" stroke-width="5" stroke="#FF0000" fill="none"/>
<circle  cx="2068.6" cy="352" r="37.5" stroke-width="5" stroke="#FF0000" fill="none"/>
<circle  cx="2068.6" cy="352" r="41.2" stroke-width="5" stroke="#FF0000" fill="none"/>
<circle  cx="2068.6" cy="352" r="45" stroke-width="5" stroke="#FF0000" fill="none"/>
<circle  cx="2068.6" cy="352" r="48.7" stroke-width="5" stroke="#FF0000" fill="none"/>
<circle  cx="2068.6" cy="352" r="52.5" stroke-width="5" stroke="#FF0000" fill="none"/>
<circle  cx="2068.6" cy="352" r="56.2" stroke-width="5" stroke="#FF0000" fill="none"/>
<circle  cx="2068.6" cy="352" r="60" stroke-width="5" stroke="#FF0000" fill="none"/>
<circle  cx="2068.6" cy="352" r="63.7" stroke-width="5" stroke="#FF0000" fill="none"/>
<circle  cx="2068.6" cy="352" r="67.5" stroke-width="5" stroke="#FF0000" fill="none"/>
<circle  cx="2068.6" cy="352" r="71.2" stroke-width="5" stroke="#FF0000" fill="none"/>
</svg>
